<svg xmlns="http://www.w3.org/2000/svg" display="none">

    <symbol id="arrow-top" viewBox="0 0 10 6">
        <path d="M9.5872 4.81025L8.5974 5.80005L4.7936 2.01699L0.9898 5.76785L0 4.77805L4.77733 0L9.5872 4.81025Z"/>
    </symbol>

    <symbol id="arrow-bottom" viewBox="0 0 10 6">
        <path d="M9.5872 0.9898L4.77733 5.80005L0 1.022L0.9898 0.0322L4.7936 3.78305L8.5974 0L9.5872 0.9898Z"/>
    </symbol>

    <symbol id="arrow-prev" viewBox="0 0 10 14">
        <path d="M6.78977 0L2.47955e-05 6.79017L6.75827 13.5478L7.25317 13.0522L0.989974 6.79017L7.28467 0.4956L6.78977 0Z"/>
        <path d="M8.77003 1.98035L3.95978 6.79021L8.73783 11.5675L9.72763 10.5777L5.97678 6.77395L9.75983 2.97015L8.77003 1.98035Z"/>
    </symbol>

    <symbol id="arrow-next" viewBox="0 0 10 14">
        <path d="M2.97012 0L9.75986 6.79017L3.00162 13.5478L2.50672 13.0522L8.76991 6.79017L2.47522 0.4956L2.97012 0Z"/>
        <path d="M0.9898 1.98035L5.80005 6.79021L1.022 11.5675L0.0322 10.5777L3.78305 6.77395L0 2.97015L0.9898 1.98035Z"/>
    </symbol>

    <symbol id="arrow-right-btn" viewBox="0 0 27 14">
        <path d="M19.6612 0L26.451 6.79017L19.6927 13.5478L19.1978 13.0522L25.461 6.79017L19.1663 0.4956L19.6612 0Z"/>
        <path d="M17.6809 1.98022L22.4911 6.79009L17.7131 11.5674L16.7233 10.5776L20.1922 7.10842L0 7.10883V6.40883L20.1292 6.40842L16.6911 2.97002L17.6809 1.98022Z"/>
    </symbol>

    <symbol id="checkbox" viewBox="0 0 11 11">
        <path d="M4.72813 10.0616L0 6.37813L1.34438 4.65281L4.24781 6.91469L9.03969 0L10.8378 1.24563L4.72813 10.0616Z"/>
    </symbol>

</svg>