<svg xmlns="http://www.w3.org/2000/svg" display="none">

    <symbol id="arrow-top" viewBox="0 0 10 6">
        <path d="M9.5872 4.81025L8.5974 5.80005L4.7936 2.01699L0.9898 5.76785L0 4.77805L4.77733 0L9.5872 4.81025Z"/>
    </symbol>

    <symbol id="arrow-bottom" viewBox="0 0 10 6">
        <path d="M9.5872 0.9898L4.77733 5.80005L0 1.022L0.9898 0.0322L4.7936 3.78305L8.5974 0L9.5872 0.9898Z"/>
    </symbol>

    <symbol id="arrow-prev" viewBox="0 0 10 14">
        <path d="M6.78977 0L2.47955e-05 6.79017L6.75827 13.5478L7.25317 13.0522L0.989974 6.79017L7.28467 0.4956L6.78977 0Z"/>
        <path d="M8.77003 1.98035L3.95978 6.79021L8.73783 11.5675L9.72763 10.5777L5.97678 6.77395L9.75983 2.97015L8.77003 1.98035Z"/>
    </symbol>

    <symbol id="arrow-next" viewBox="0 0 10 14">
        <path d="M2.97012 0L9.75986 6.79017L3.00162 13.5478L2.50672 13.0522L8.76991 6.79017L2.47522 0.4956L2.97012 0Z"/>
        <path d="M0.9898 1.98035L5.80005 6.79021L1.022 11.5675L0.0322 10.5777L3.78305 6.77395L0 2.97015L0.9898 1.98035Z"/>
    </symbol>

    <symbol id="arrow-right-btn" viewBox="0 0 27 14">
        <path d="M19.6612 0L26.451 6.79017L19.6927 13.5478L19.1978 13.0522L25.461 6.79017L19.1663 0.4956L19.6612 0Z"/>
        <path d="M17.6809 1.98022L22.4911 6.79009L17.7131 11.5674L16.7233 10.5776L20.1922 7.10842L0 7.10883V6.40883L20.1292 6.40842L16.6911 2.97002L17.6809 1.98022Z"/>
    </symbol>

    <symbol id="checkbox" viewBox="0 0 11 11">
        <path d="M4.72813 10.0616L0 6.37813L1.34438 4.65281L4.24781 6.91469L9.03969 0L10.8378 1.24563L4.72813 10.0616Z"/>
    </symbol>

    <symbol id="adv-icon1" viewBox="0 0 37 56">
        <path d="M33.5998 17.1969L28.8413 14.6144C28.5399 14.45 28.1625 14.5619 27.9984 14.8642C27.8346 15.166 27.9464 15.5431 28.2482 15.7071L33.0067 18.2895C34.1099 18.8882 35.0417 20.4539 35.0417 21.7091V51.7729C35.0417 52.9106 34.1158 53.8365 32.978 53.8365H3.30671C2.16907 53.8365 1.24315 52.9106 1.24315 51.7729V46.7827C1.24315 46.4393 0.964884 46.1612 0.621644 46.1612C0.278261 46.1612 0 46.4393 0 46.7827V51.7729C0 53.5963 1.48302 55.0796 3.30671 55.0796H32.9781C34.8015 55.0796 36.285 53.5963 36.285 51.7729V21.7092C36.2847 19.9959 35.1051 18.0139 33.5998 17.1969Z"
              fill="#131313"/>
        <path d="M3.30586 42.2621L25.2626 42.2883C26.4031 42.2895 27.3361 43.2183 27.3429 44.3587L27.3499 45.5338C27.353 46.0814 27.1989 47.5937 25.3025 47.5937H7.98354C7.64016 47.5937 7.3619 47.872 7.3619 48.2152C7.3619 48.5586 7.64016 48.8368 7.98354 48.8368H25.3025C28.5932 48.8368 28.5983 46.4074 28.5932 45.5267L28.5862 44.3514C28.5756 42.5304 27.0852 41.0474 25.2643 41.0451L3.30757 41.019C2.16935 41.0177 1.24315 40.0906 1.24315 38.9524V21.7092C1.24315 20.438 2.14817 18.7868 3.21898 18.1025L16.2587 9.77297C17.3447 9.0798 18.6718 8.95226 19.1325 9.30161L20.4531 10.3038C20.727 10.5111 21.117 10.4575 21.3241 10.1845C21.5317 9.91103 21.4783 9.52115 21.205 9.31356L19.8835 8.31142C18.9337 7.59067 17.0875 7.76869 15.5896 8.72561L2.54985 17.0551C1.11973 17.9682 0 20.0127 0 21.7093V38.9523C-0.000142187 40.7751 1.48287 42.2598 3.30586 42.2621Z"
              fill="#131313"/>
        <path d="M12.2177 8.42518C12.5614 8.42518 12.8393 8.1472 12.8393 7.80353C12.8393 4.18628 15.7828 1.243 19.4007 1.243C23.0187 1.243 25.9621 4.18628 25.9621 7.80353C25.9621 11.4218 23.0187 14.3652 19.4007 14.3652C19.0575 14.3652 18.7792 14.6435 18.7792 14.9867C18.7792 15.3301 19.0575 15.6083 19.4007 15.6083C23.7043 15.6083 27.2054 12.1071 27.2054 7.80353C27.2053 3.50066 23.7042 0 19.4007 0C15.0973 0 11.5962 3.50066 11.5962 7.80353C11.5962 8.1472 11.8746 8.42518 12.2177 8.42518Z"
              fill="#131313"/>
        <path fill-rule="evenodd" clip-rule="evenodd"
              d="M11 25.4162C11 24.4677 11.2339 23.6613 11.7018 22.9968C12.1696 22.3323 12.8477 22 13.736 22C14.5533 22 15.2299 22.2975 15.7659 22.8926C16.3018 23.4876 16.5698 24.362 16.5698 25.5159C16.5698 26.6395 16.2989 27.5049 15.757 28.112C15.2151 28.7191 14.5474 29.0227 13.7538 29.0227C12.9662 29.0227 12.3103 28.7236 11.7862 28.1256C11.2621 27.5275 11 26.6244 11 25.4162ZM13.7805 23.1236C13.3837 23.1236 13.0535 23.2988 12.79 23.6492C12.5264 23.9996 12.3947 24.6429 12.3947 25.5793C12.3947 26.4311 12.5279 27.0306 12.7944 27.378C13.0609 27.7254 13.3896 27.899 13.7805 27.899C14.1832 27.899 14.5163 27.7238 14.7798 27.3735C15.0434 27.0231 15.1751 26.3827 15.1751 25.4524C15.1751 24.5946 15.0419 23.992 14.7754 23.6447C14.5089 23.2973 14.1772 23.1236 13.7805 23.1236ZM20.9137 22L13.7893 36H15.1129L22.2107 22H20.9137ZM19.4213 32.3935C19.4213 31.439 19.6552 30.6311 20.1231 29.9696C20.591 29.3081 21.272 28.9773 22.1662 28.9773C22.9835 28.9773 23.6601 29.2749 24.1961 29.8699C24.732 30.4649 25 31.3394 25 32.4932C25 33.6168 24.7291 34.4822 24.1872 35.0893C23.6453 35.6964 22.9746 36 22.1751 36C21.3875 36 20.7316 35.6995 20.2075 35.0984C19.6834 34.4973 19.4213 33.5957 19.4213 32.3935ZM21.2113 30.6265C21.4748 30.2762 21.808 30.101 22.2107 30.101C22.6074 30.101 22.9391 30.2746 23.2056 30.622C23.4721 30.9694 23.6053 31.5719 23.6053 32.4298C23.6053 33.3601 23.4736 34.0004 23.21 34.3508C22.9465 34.7012 22.6104 34.8764 22.2018 34.8764C21.8109 34.8764 21.4822 34.7012 21.2157 34.3508C20.9492 34.0004 20.816 33.4024 20.816 32.5566C20.816 31.6203 20.9478 30.9769 21.2113 30.6265Z"
              fill="#131313"/>
    </symbol>

    <symbol id="adv-icon2" viewBox="0 0 54 40">
        <path d="M52.837 20.7611L47.2644 10.873C46.5746 9.64917 44.9347 8.69067 43.5307 8.69067H39.9499C38.4376 8.69067 37.207 9.92088 37.207 11.4333V20.7633C37.207 22.2757 38.4376 23.5063 39.9499 23.5063H47.5445C47.861 23.5063 48.1175 23.2498 48.1175 22.9334C48.1175 22.6168 47.861 22.3605 47.5445 22.3605H39.9499C39.0694 22.3605 38.353 21.644 38.353 20.7633V11.4333C38.353 10.553 39.0694 9.83647 39.9499 9.83647H43.5307C44.5246 9.83647 45.7778 10.5687 46.2662 11.4355L51.8387 21.3234C52.376 22.2774 52.8298 24.0082 52.8298 25.1029V32.4806C52.8298 33.3612 52.1134 34.0775 51.2327 34.0775H48.8717C48.5553 34.0775 48.2988 34.334 48.2988 34.6504C48.2988 34.967 48.5553 35.2233 48.8717 35.2233H51.2327C52.7451 35.2233 53.9757 33.993 53.9757 32.4806V25.1029C53.9757 23.8018 53.4754 21.8946 52.837 20.7611Z"
              fill="#131313"/>
        <path d="M42.2861 30.0552C41.4352 30.0552 40.6044 30.2891 39.8831 30.7331C39.6135 30.8987 39.5295 31.2514 39.6951 31.521C39.8613 31.7904 40.2144 31.8745 40.4832 31.709C41.0238 31.3767 41.6471 31.2011 42.2861 31.2011C44.1883 31.2011 45.7359 32.7486 45.7359 34.6503C45.7359 36.5523 44.1881 38.0995 42.2861 38.0995C40.384 38.0995 38.8368 36.5522 38.8368 34.6503C38.8368 34.3339 38.5803 34.0774 38.2637 34.0774H35.7682C35.4517 34.0774 35.1953 34.3339 35.1953 34.6503C35.1953 34.9669 35.4517 35.2234 35.7682 35.2234H37.7306C38.0139 37.4871 39.9469 39.2457 42.2862 39.2457C44.8203 39.2457 46.882 37.1844 46.882 34.6503C46.8819 32.1167 44.8202 30.0552 42.2861 30.0552Z"
              fill="#131313"/>
        <path d="M32.1347 6.5485C30.3796 6.5485 30.329 4.60922 30.329 4.38798V2.82827C30.329 1.29635 29.0827 0.050415 27.5511 0.050415H2.77785C1.24633 0.050284 0 1.29635 0 2.82827V14.8223C0 15.1388 0.256238 15.3953 0.572898 15.3953H12.2635C12.58 15.3953 12.8365 15.1388 12.8365 14.8223V10.5488L21.9793 17.4062C22.0384 17.4502 22.0737 17.5001 22.0742 17.5396C22.0742 17.5785 22.0399 17.629 21.9818 17.6739L12.8365 24.7612V20.2409C12.8365 19.9245 12.58 19.668 12.2635 19.668H0.572898C0.256107 19.668 0 19.9245 0 20.2409V32.4988C0 34.0565 0.88851 35.2765 2.02251 35.2765H12.338C12.6208 37.5108 14.5298 39.2456 16.8397 39.2456C19.3442 39.2456 21.3816 37.2079 21.3816 34.7036C21.3816 32.1993 19.3439 30.1621 16.8397 30.1621C15.9988 30.1621 15.1777 30.3936 14.4647 30.8317C14.1952 30.9974 14.111 31.3504 14.2767 31.6197C14.4424 31.8896 14.7955 31.974 15.0648 31.8079C15.597 31.481 16.2107 31.308 16.8396 31.308C18.7124 31.308 20.2356 32.8312 20.2356 34.7037C20.2356 36.5763 18.7124 38.0997 16.8396 38.0997C14.9669 38.0997 13.4436 36.576 13.4436 34.7037C13.4436 34.3873 13.1871 34.1308 12.8706 34.1308H2.02251C1.60886 34.1308 1.14593 33.4328 1.14593 32.4989V20.8135H11.6906V24.9578C11.6906 25.4396 11.8898 25.8133 12.2374 25.9838C12.3614 26.0447 12.4941 26.0744 12.6309 26.0744C12.878 26.0741 13.138 25.9768 13.3828 25.7872L22.6839 18.5794C23.0276 18.3128 23.2231 17.9303 23.2203 17.5299C23.2166 17.1295 23.0151 16.7503 22.6669 16.4892L13.3851 9.52755C13.0014 9.23998 12.5824 9.17419 12.2355 9.34733C11.8892 9.5206 11.6905 9.89532 11.6905 10.3752V14.249H1.14593V2.82827C1.14593 1.92823 1.87794 1.19621 2.77799 1.19621H27.5511C28.4512 1.19621 29.1832 1.92823 29.1832 2.82827V4.38811C29.1832 5.98045 30.1068 7.69456 32.1348 7.69456C32.614 7.69456 33.1479 8.36471 33.1479 9.32662V32.4988C33.1479 33.3988 32.4159 34.1307 31.5159 34.1307H24.2162C23.8998 34.1307 23.6433 34.3872 23.6433 34.7036C23.6433 35.0203 23.8998 35.2765 24.2162 35.2765H31.5159C33.0479 35.2765 34.2938 34.0303 34.2938 32.4988V9.32649C34.2935 7.79457 33.3251 6.5485 32.1347 6.5485Z"
              fill="#131313"/>
    </symbol>

    <symbol id="adv-icon3" viewBox="0 0 52 46">
        <path d="M5.52897 25.4899C5.85686 25.4899 6.12256 25.2242 6.12256 24.8965C6.12256 24.5686 5.85686 24.303 5.52897 24.303H1.38051C1.2757 24.303 1.18704 24.2145 1.18704 24.1097V8.80758C1.18704 8.47969 0.921337 8.21399 0.593452 8.21399C0.265702 8.21413 0 8.47983 0 8.80758V24.1094C0 24.8704 0.619384 25.4897 1.38051 25.4897H5.52897V25.4899Z"
              fill="#131313"/>
        <path d="M23.5484 26.7604H10.543C10.3503 26.7604 10.1869 26.5971 10.1869 26.4043V25.8459C10.1869 25.6528 10.3502 25.4897 10.543 25.4897H22.6427C23.4937 25.4897 24.1859 24.7975 24.1859 23.9467V8.23443C24.1859 7.38356 23.4936 6.69141 22.6427 6.69141H4.85152C4.52363 6.69141 4.25793 6.95711 4.25793 7.28486C4.25793 7.61274 4.52363 7.87845 4.85152 7.87845H22.6427C22.8358 7.87845 22.9988 8.04137 22.9988 8.23457V23.947C22.9988 24.1402 22.8358 24.3031 22.6427 24.3031H10.543C9.69213 24.3031 8.99984 24.9953 8.99984 25.8461V26.4046C8.99984 27.2553 9.69213 27.9476 10.543 27.9476H23.5484C23.7415 27.9476 23.9046 28.1107 23.9046 28.3037V44.0425C23.9046 44.2355 23.7415 44.3986 23.5484 44.3986H11.4528V38.8471H12.8146C13.1505 38.8471 13.4292 38.6877 13.5598 38.4209C13.6904 38.1541 13.6455 37.8364 13.4397 37.5715L10.4522 33.7163C10.2746 33.487 10.0154 33.356 9.73965 33.356H9.73327C9.45535 33.3582 9.19535 33.4934 9.01966 33.7272L6.13373 37.5752C5.93361 37.8423 5.89328 38.1597 6.02552 38.424C6.15803 38.6886 6.43623 38.8467 6.76995 38.8467H8.01971V44.3982H2.28641C2.18173 44.3982 2.09294 44.3097 2.09294 44.2043V31.0235C2.09294 30.6957 1.82723 30.43 1.49935 30.43C1.17146 30.43 0.905762 30.6957 0.905762 31.0235V44.2043C0.905762 44.9659 1.52515 45.5851 2.28627 45.5851H8.61317C8.94105 45.5851 9.20675 45.3194 9.20675 44.9916V38.2532C9.20675 37.9252 8.94105 37.6595 8.61317 37.6595H7.55389L9.744 34.7396L12.0065 37.6595H10.8593C10.5315 37.6595 10.2659 37.9252 10.2659 38.2532V44.9916C10.2659 45.4021 10.5909 45.5851 10.8079 45.5851H23.5486C24.3996 45.5851 25.0917 44.8927 25.0917 44.0421V28.3034C25.0917 27.4524 24.3994 26.7604 23.5484 26.7604Z"
              fill="#131313"/>
        <path d="M51.364 1.04651C51.0361 1.04651 50.7706 1.31221 50.7706 1.6401V44.1355C50.7706 44.2782 50.6501 44.3984 50.508 44.3984H45.6143V25.5146H46.9758C47.3115 25.5146 47.5901 25.3558 47.7209 25.089C47.8515 24.8223 47.8067 24.5048 47.601 24.2391L44.6133 20.3836C44.4357 20.1543 44.1762 20.0235 43.9011 20.0235C43.8984 20.0235 43.8958 20.0239 43.8939 20.0239C43.6159 20.0258 43.3557 20.1616 43.181 20.3951L40.2951 24.2424C40.095 24.5096 40.0545 24.8272 40.1869 25.092C40.3194 25.3564 40.5974 25.5145 40.9313 25.5145H42.1812V44.3982H29.9357C29.4795 44.3982 29.1082 44.0268 29.1082 43.5706V2.14177C29.1082 1.68545 29.4794 1.31411 29.9357 1.31411H47.239C47.5669 1.31411 47.8326 1.04841 47.8326 0.720663C47.8326 0.392778 47.5669 0.127075 47.239 0.127075H29.9359C28.8249 0.127075 27.9214 1.0309 27.9214 2.14163V43.5706C27.9214 44.6817 28.8251 45.5851 29.9359 45.5851H42.7749C43.1028 45.5851 43.3685 45.3194 43.3685 44.9917V24.9212C43.3685 24.5934 43.1028 24.3277 42.7749 24.3277H41.7156L43.9058 21.4081L46.1684 24.3277H45.0208C44.6929 24.3277 44.4274 24.5934 44.4274 24.9212V44.9918C44.4274 45.3196 44.6929 45.5853 45.0208 45.5853H50.508C51.3073 45.5853 51.9576 44.9351 51.9576 44.1355V1.6401C51.9576 1.31235 51.6919 1.04651 51.364 1.04651Z"
              fill="#131313"/>
    </symbol>

    <symbol id="adv-icon4" viewBox="0 0 52 48">
        <path d="M51.5315 21.3639C51.3593 21.0839 50.9929 20.9964 50.7128 21.1682C50.4328 21.34 50.3453 21.7066 50.517 21.9866C50.6958 22.2775 50.7901 22.6126 50.7901 22.9555C50.7901 23.9781 49.9582 24.8101 48.9357 24.8101C47.9132 24.8101 47.0816 23.9782 47.0816 22.9558C47.0816 21.9334 47.9132 21.1015 48.9359 21.1015H49.005C49.3337 21.1015 49.6 20.8351 49.6 20.5064V12.4136C49.6 10.8466 48.4497 9.19187 46.981 8.64627L24.5462 0.307761C23.0444 -0.25049 21.2198 0.450829 20.4783 1.87089L0.306962 40.5151C-0.0803158 41.2568 -0.102096 42.013 0.247066 42.5891C0.595956 43.1652 1.27631 43.4957 2.11335 43.4957H5.6047C5.89968 45.906 7.95545 47.7802 10.4442 47.7802C13.1352 47.7802 15.3238 45.5913 15.3238 42.9007C15.3238 40.21 13.1352 38.0212 10.4442 38.0212C9.54091 38.0212 8.65854 38.2698 7.89284 38.7404C7.61269 38.9127 7.5253 39.279 7.69736 39.5588C7.86901 39.8388 8.2356 39.9265 8.51602 39.7543C9.09414 39.3991 9.76102 39.2111 10.4442 39.2111C12.4786 39.2111 14.1337 40.8661 14.1337 42.9007C14.1337 44.9352 12.4786 46.5902 10.4442 46.5902C8.40984 46.5902 6.75483 44.9352 6.75483 42.9007C6.75483 42.5721 6.48843 42.3057 6.15982 42.3057C6.15955 42.3057 6.15928 42.3057 6.15928 42.3057H6.15887H2.11321C1.70211 42.3057 1.3927 42.1841 1.26447 41.9726C1.1361 41.7606 1.17163 41.4305 1.36207 41.0657L21.5336 2.42166C21.9984 1.53003 23.1881 1.07252 24.1313 1.42317L46.5661 9.76169C47.5654 10.133 48.4097 11.3474 48.4097 12.4134V19.9599C46.9813 20.2101 45.8914 21.4566 45.8914 22.9555C45.8914 24.6341 47.2568 25.9998 48.9354 25.9998C50.614 25.9998 51.98 24.6341 51.98 22.9554C51.9801 22.3924 51.8248 21.8422 51.5315 21.3639Z"
              fill="#131313"/>
        <path d="M32.4877 38.1019C31.5919 38.1019 30.7169 38.3486 29.9575 38.815C29.6772 38.987 29.5897 39.3536 29.7616 39.6333C29.9342 39.9134 30.3008 40.001 30.58 39.8291C31.1521 39.4776 31.8121 39.2921 32.4878 39.2921C34.4999 39.2921 36.1368 40.929 36.1368 42.9404C36.1368 44.9525 34.5 46.5898 32.4878 46.5898C30.476 46.5898 28.8391 44.9526 28.8391 42.9404C28.8391 42.6118 28.5727 42.3454 28.2441 42.3454H20.9164C20.5877 42.3454 20.3213 42.6118 20.3213 42.9404C20.3213 43.269 20.5877 43.5357 20.9164 43.5357H27.6894C27.9839 45.9234 30.0213 47.7798 32.4877 47.7798C35.156 47.7798 37.3268 45.6087 37.3268 42.9404C37.3267 40.2729 35.1559 38.1019 32.4877 38.1019Z"
              fill="#131313"/>
        <path d="M36.9451 18.2012C36.2211 16.9154 34.4977 15.9083 33.0222 15.9083H28.2921C26.7048 15.9083 25.4131 17.1996 25.4131 18.787V28.6082C25.4131 30.1954 26.7048 31.487 28.2921 31.487H37.2472C37.5759 31.487 37.8422 31.2206 37.8422 30.8919C37.8422 30.5631 37.5759 30.2969 37.2472 30.2969H28.2921C27.361 30.2969 26.6032 29.5393 26.6032 28.6082V18.787C26.6032 17.8559 27.361 17.0985 28.2921 17.0985H33.0222C34.0716 17.0985 35.3934 17.8708 35.9088 18.7853L41.7742 29.1942C42.3404 30.1992 42.8189 32.0219 42.8189 33.1756V40.9412C42.8189 41.8723 42.0613 42.6299 41.1304 42.6299H39.18C38.8513 42.6299 38.585 42.8963 38.585 43.2249C38.585 43.5538 38.8513 43.8199 39.18 43.8199H41.1304C42.7178 43.8199 44.0089 42.5287 44.0089 40.9412V33.1756C44.0089 31.8071 43.4828 29.8017 42.811 28.6095L36.9451 18.2012Z"
              fill="#131313"/>
    </symbol>

    <symbol id="adv-icon5" viewBox="0 0 50 47">
        <path d="M34.4369 44.458H4.21627C1.14656 44.458 1.04014 41.6038 1.03836 41.2799V4.30831C1.03836 1.2386 3.89252 1.13242 4.21627 1.1304H5.36318C5.65 1.1304 5.88242 0.897979 5.88242 0.611281C5.88242 0.324464 5.65 0.092041 5.36318 0.092041H4.21627C2.75808 0.092041 0 0.973158 0 4.30831V41.2798C0 42.7381 0.881117 45.4962 4.21627 45.4962H34.4369C34.7238 45.4962 34.9561 45.2638 34.9561 44.977C34.9561 44.6903 34.7238 44.458 34.4369 44.458Z"
              fill="#131313"/>
        <path d="M31.7293 25.9721H10.7788C8.50695 25.9721 8.42417 23.8552 8.42239 23.6157V20.7401C8.42239 18.4683 10.5394 18.3856 10.7788 18.3837H30.9077C33.5928 18.3837 34.3024 16.1632 34.3024 14.9891V12.1135C34.3024 9.42838 32.0819 8.71876 30.9077 8.71876H10.7788C8.50695 8.71876 8.42417 6.60178 8.42239 6.36235V3.48705C8.42239 1.2152 10.5394 1.13266 10.7788 1.13064H37.4805C40.5503 1.13064 40.6564 3.98492 40.6585 4.30855V28.6468C40.6585 28.9336 40.8908 29.1659 41.1776 29.1659C41.4644 29.1659 41.6967 28.9336 41.6967 28.6468V4.30831C41.6967 2.85012 40.8156 0.092041 37.4805 0.092041H10.7788C9.60457 0.092041 7.38403 0.801661 7.38403 3.48682V6.36235C7.38403 7.53646 8.09341 9.75712 10.7788 9.75712H30.9056C31.1469 9.75902 33.2638 9.84157 33.2638 12.1135V14.9871C33.2619 15.2284 33.1793 17.3456 30.9074 17.3456H10.7786C9.60445 17.3456 7.38379 18.0552 7.38379 20.7404V23.6159C7.38379 24.7901 8.09317 27.0107 10.7786 27.0107H31.729C34.0009 27.0107 34.0833 29.1276 34.0855 29.3671V32.2428C34.0855 34.5146 31.9686 34.597 31.729 34.5992H7.90315C7.61633 34.5992 7.38403 34.8315 7.38403 35.1183C7.38403 35.4051 7.61645 35.6374 7.90315 35.6374H31.7293C32.9035 35.6374 35.1241 34.9278 35.1241 32.2428V29.3671C35.1241 28.1928 34.4146 25.9721 31.7293 25.9721Z"
              fill="#131313"/>
        <path d="M49.4538 38.8097C49.1671 38.8097 48.9347 39.042 48.9347 39.3288C48.9347 42.6103 46.2651 45.2795 42.9839 45.2795C39.7026 45.2795 37.0331 42.6102 37.0331 39.3288C37.0331 36.0474 39.7027 33.3781 42.9839 33.3781C43.2708 33.3781 43.5032 33.1458 43.5032 32.859C43.5032 32.5721 43.2708 32.3398 42.9839 32.3398C39.13 32.3398 35.9946 35.4751 35.9946 39.3289C35.9946 43.1827 39.1299 46.3181 42.9839 46.3181C46.838 46.3181 49.9731 43.1827 49.9731 39.3289C49.973 39.042 49.7406 38.8097 49.4538 38.8097Z"
              fill="#131313"/>
        <path d="M42.2363 40.3605L39.6222 37.7461C39.4195 37.5432 39.0905 37.5432 38.888 37.7461C38.6851 37.9487 38.6851 38.2776 38.888 38.4802L41.5022 41.0946C41.8851 41.4776 42.5184 41.8223 43.2196 41.8223C43.7509 41.8223 44.3212 41.6242 44.8506 41.0946L48.7721 37.1731C48.9749 36.9705 48.9749 36.6416 48.7721 36.439C48.5693 36.2362 48.2404 36.2362 48.0379 36.439L44.1165 40.3605C43.2331 41.2433 42.3936 40.5133 42.2363 40.3605Z"
              fill="#131313"/>
    </symbol>

    <symbol id="adv-icon6" viewBox="0 0 52 47">
        <path d="M51.6571 40.5188L40.0673 21.8991L42.3667 20.4315C42.6941 20.2225 42.8611 19.9179 42.8248 19.5956C42.7886 19.2731 42.558 19.0135 42.1922 18.8826L34.7191 16.2106C34.3956 16.095 34.0555 16.1286 33.7871 16.3029C33.5183 16.4773 33.3496 16.7741 33.3236 17.117L32.7342 24.9205C32.705 25.3058 32.8478 25.6221 33.1262 25.7888C33.2487 25.862 33.3845 25.8983 33.526 25.8983C33.7056 25.8983 33.8943 25.8394 34.0767 25.7233L36.1441 24.4034L41.7495 33.1851C41.8537 33.3483 42.0303 33.4376 42.2106 33.4376C42.3111 33.4376 42.413 33.4098 42.5041 33.3516C42.7586 33.1893 42.8331 32.8511 42.6707 32.5968L36.7715 23.3548C36.5235 22.9563 36.2716 23.026 36.0167 23.1881L33.8573 24.5666L34.4103 17.2605L41.3926 19.7568L39.0973 21.2219C39.0921 21.2254 39.088 21.23 39.0827 21.2335C39.0812 21.2344 39.0793 21.2344 39.0777 21.2353C38.7127 21.4365 38.5932 21.6005 38.7571 21.8601L50.73 41.0965C50.8896 41.3529 50.9442 41.5926 50.8726 41.7218C50.8007 41.8509 50.5685 41.9313 50.2662 41.9313H38.4633C38.1615 41.9313 37.917 42.1759 37.917 42.4776C37.917 42.7794 38.1615 43.024 38.4633 43.024H50.2662C50.9862 43.024 51.5553 42.7428 51.8278 42.2523C52.0995 41.7621 52.0375 41.1303 51.6571 40.5188Z"
              fill="#131313"/>
        <path d="M32.8043 10.0556L27.0803 1.00808C26.7012 0.408585 26.1463 0.07671 25.5718 0.074585C24.9924 0.080835 24.45 0.43321 24.0842 1.04108L14.9035 16.2902L12.7028 14.7757C12.383 14.5553 12.037 14.5202 11.7547 14.6793C11.472 14.8382 11.3224 15.152 11.3444 15.5397L11.7927 23.4636C11.8122 23.8068 11.9754 24.1067 12.2407 24.2862C12.4077 24.3992 12.6038 24.457 12.8074 24.457C12.9274 24.457 13.05 24.4368 13.1709 24.3962L20.5882 21.9008C20.9545 21.7776 21.1903 21.523 21.2354 21.2018C21.2804 20.881 21.1234 20.5711 20.8053 20.3518L18.7845 18.9613L24.6908 10.3793C24.8619 10.1306 24.799 9.79059 24.5504 9.61934C24.3014 9.44796 23.9617 9.51134 23.7904 9.75971L17.5743 18.7917C17.3565 19.0972 17.466 19.3805 17.7147 19.5517L19.8252 21.0041L12.88 23.3393L12.4613 15.9361C12.4613 15.9361 14.6553 17.4821 14.7849 17.5465C14.8772 17.5923 15.2485 17.8521 15.5349 17.3602L25.0204 1.60496C25.1865 1.32908 25.392 1.16983 25.5839 1.16759C25.7842 1.16846 25.9848 1.32033 26.1568 1.59221L31.8807 10.6397C32.0422 10.8948 32.3799 10.9706 32.6345 10.8093C32.8894 10.6482 32.9655 10.3105 32.8043 10.0556Z"
              fill="#131313"/>
        <path d="M32.6757 39.9165L26.4152 35.2212C26.1059 34.9893 25.7623 34.9395 25.4724 35.0845C25.1826 35.2295 25.0163 35.5342 25.0163 35.9206V38.3735H14.5983C14.2964 38.3735 14.0518 38.6178 14.0518 38.9198C14.0518 39.2216 14.2964 39.4662 14.5983 39.4662H25.5627C26.0039 39.4723 26.1091 39.2216 26.1091 38.9198V36.3578L31.9701 40.7551L26.1091 45.2973C26.1091 45.2973 26.1132 42.5015 26.1132 42.478C26.1132 42.176 26.0039 41.9418 25.5668 41.9316H1.74268C1.4343 41.9316 1.20405 41.8503 1.12718 41.7141C1.0503 41.5778 1.09943 41.3388 1.2583 41.0745L8.7133 28.6915C8.86893 28.433 8.78568 28.0972 8.52705 27.9415C8.26805 27.7857 7.9328 27.8692 7.77718 28.1277L0.32193 40.5103C-0.0485702 41.1258 -0.101945 41.7606 0.17568 42.2513C0.453305 42.7423 1.02418 43.0241 1.74268 43.0241H25.0163V45.7562C25.0163 46.1446 25.1833 46.4493 25.4744 46.592C25.5812 46.6442 25.6948 46.6701 25.8111 46.6701C26.0121 46.6701 26.2211 46.593 26.4157 46.4423L32.6889 41.5807C32.9608 41.3702 33.1151 41.0656 33.1126 40.745C33.1101 40.4247 32.9509 40.1227 32.6757 39.9165Z"
              fill="#131313"/>
    </symbol>

</svg>